<?xml version="1.0" encoding="utf-8"?>
<!-- Generator: Adobe Illustrator 26.2.1, SVG Export Plug-In . SVG Version: 6.00 Build 0)  -->
<svg version="1.1" id="Layer_1" xmlns="http://www.w3.org/2000/svg" xmlns:xlink="http://www.w3.org/1999/xlink" x="0px" y="0px"
	 viewBox="0 0 116 40" style="enable-background:new 0 0 116 40;" xml:space="preserve">
<style type="text/css">
	.st0{display:none;}
	.st1{display:inline;}
	.st2{fill-rule:evenodd;clip-rule:evenodd;fill:#0D6EFD;fill-opacity:0.2;}
	.st3{fill-rule:evenodd;clip-rule:evenodd;fill:#0D6EFD;}
	.st4{opacity:0.6008;}
	.st5{fill-rule:evenodd;clip-rule:evenodd;fill:#FFFFFF;}
	.st6{fill-rule:evenodd;clip-rule:evenodd;fill:#ACACAC;}
	.st7{fill:none;}
	.st8{font-family:'HelveticaNeue-Bold';}
	.st9{font-size:21px;}
</style>
<g id="_xD83D__xDC8E_-Blocks" class="st0">
	<g id="_Styleguide" transform="translate(-172.000000, -197.000000)" class="st1">
		<g id="Group" transform="translate(172.000000, 196.000000)">
			<g id="logo" transform="translate(0.000000, 1.000000)">
				<path id="_x32_" class="st2" d="M34.9,0C38.8,0,42,3.4,42,7.5v25c0,4.1-3.2,7.5-7.1,7.5H11.1C7.2,40,4,36.6,4,32.5v-25
					C4,3.4,7.2,0,11.1,0H34.9z"/>
				<path id="_x31_" class="st3" d="M30.9,0C34.8,0,38,3.4,38,7.5v25c0,4.1-3.2,7.5-7.1,7.5H7.1C3.2,40,0,36.6,0,32.5v-25
					C0,3.4,3.2,0,7.1,0H30.9z"/>
				<g id="Group-2" transform="translate(11.000000, 9.000000)" class="st4">
					<path id="Combined-Shape" class="st5" d="M8,0c2.5,0,4.5,2,4.5,4.5l0.9,0c1,0,1.9,0.8,1.9,1.8L16,17.2c0.1,1-0.7,1.8-1.7,1.8
						H1.7c-1,0-1.7-0.8-1.7-1.8L0.7,6.3c0.1-1,0.9-1.8,1.9-1.8h0.9C3.5,2,5.5,0,8,0z M3.5,6.3H2.6c0,0-0.1,0.1-0.1,0.1L1.8,17.2
						l12.4,0L13.5,6.4c0,0-0.1-0.1-0.1-0.1h-0.9v1.8c0,0.5-0.4,0.9-0.9,0.9c-0.5,0-0.9-0.4-0.9-0.9V6.3H5.3v1.8C5.3,8.6,4.9,9,4.4,9
						S3.5,8.6,3.5,8.1V6.3z M8,1.8C6.5,1.8,5.3,3,5.3,4.5l5.4,0C10.7,3,9.5,1.8,8,1.8z"/>
				</g>
			</g>
			<g id="text" transform="translate(49.000000, 8.000000)">
				<path id="Brand" class="st3" d="M7.9,17.3c3.9,0,5.9-2,5.9-4.8c0-2.6-1.8-4.1-3.8-4.2V8.1c1.8-0.4,3.1-1.7,3.1-3.7
					c0-2.6-1.9-4.4-5.7-4.4H0.5v17.3H7.9z M4.1,9.7h3.1c1.8,0,2.8,1,2.8,2.4c0,1.3-0.9,2.1-2.9,2.1h-3V9.7z M4.1,3h2.8
					C8.5,3,9.4,3.8,9.4,5c0,1.4-1.1,2.2-2.6,2.2H4.1V3z M19.3,17.3V9.9c0-1.6,1.2-2.7,2.7-2.7c0.5,0,1.2,0.1,1.5,0.2V4.3
					c-0.3-0.1-0.8-0.1-1.1-0.1c-1.4,0-2.6,0.8-3.1,2.4h-0.1V4.3h-3.5v12.9H19.3z M32,15.5h0.1v1.8h3.4V8.5c0-3.1-2.6-4.4-5.5-4.4
					c-3.1,0-5.1,1.5-5.6,3.8l3.3,0.3c0.2-0.9,1-1.5,2.3-1.5c1.2,0,1.9,0.6,1.9,1.7v0.1c0,0.8-0.9,0.9-3.1,1.2
					c-2.6,0.2-4.9,1.1-4.9,4c0,2.6,1.8,3.9,4.3,3.9C30.2,17.5,31.4,16.7,32,15.5z M27.4,13.5c0-1,0.8-1.5,2.1-1.7
					c0.8-0.1,2.1-0.3,2.5-0.6v1.4c0,1.4-1.1,2.4-2.7,2.4C28.2,15,27.4,14.5,27.4,13.5z M43.9,7.1c1.4,0,2.3,0.9,2.3,2.5v7.6h3.6V9
					c0-3-1.8-4.9-4.5-4.9c-1.9,0-3.3,0.9-3.9,2.5h-0.2V4.3h-3.4v12.9h3.6V9.8C41.5,8.1,42.5,7.1,43.9,7.1z M60.7,15.2h0.2v2.1h3.5V0
					h-3.6v6.5h-0.1c-0.5-1.1-1.5-2.3-3.7-2.3c-2.8,0-5.2,2.2-5.2,6.7c0,4.3,2.3,6.7,5.3,6.7C59.1,17.5,60.2,16.3,60.7,15.2z
					 M55.4,10.8c0-2.2,0.9-3.8,2.7-3.8c1.7,0,2.7,1.5,2.7,3.8s-1,3.8-2.7,3.8C56.4,14.6,55.4,13,55.4,10.8z"/>
				<path id="Ecommerce-ui-kit" class="st6" d="M4.2,27.7v-0.9H1v-2h2.9v-0.9H1v-2h3.2V21H0v6.6H4.2z M9.1,26.1H8.2
					C8,26.6,7.6,27,7.1,27c-0.8,0-1.3-0.7-1.3-1.8c0-1.1,0.5-1.7,1.3-1.7c0.6,0,1,0.4,1.1,0.9h0.9c-0.1-1-0.9-1.7-2-1.7
					c-1.4,0-2.3,1.1-2.3,2.6c0,1.5,0.9,2.6,2.3,2.6C8.2,27.8,9,27.1,9.1,26.1z M14.1,25.2c0-1.5-0.9-2.6-2.3-2.6
					c-1.4,0-2.3,1-2.3,2.6c0,1.5,0.9,2.6,2.3,2.6C13.2,27.8,14.1,26.8,14.1,25.2z M10.5,25.2c0-1,0.4-1.8,1.3-1.8
					c0.9,0,1.3,0.8,1.3,1.8c0,1-0.4,1.8-1.3,1.8C10.9,27,10.5,26.2,10.5,25.2z M15.7,27.7v-3.1c0-0.7,0.5-1.1,1-1.1
					c0.5,0,0.9,0.4,0.9,0.9v3.3h1v-3.2c0-0.6,0.4-1,1-1c0.5,0,0.9,0.3,0.9,1v3.2h1v-3.3c0-1.1-0.6-1.7-1.5-1.7
					c-0.7,0-1.3,0.3-1.5,0.9h-0.1c-0.2-0.5-0.7-0.9-1.3-0.9c-0.7,0-1.1,0.3-1.4,0.9h-0.1v-0.8h-0.9v5H15.7z M23.3,27.7v-3.1
					c0-0.7,0.5-1.1,1-1.1c0.5,0,0.9,0.4,0.9,0.9v3.3h1v-3.2c0-0.6,0.4-1,1-1c0.5,0,0.9,0.3,0.9,1v3.2h1v-3.3c0-1.1-0.6-1.7-1.5-1.7
					c-0.7,0-1.3,0.3-1.5,0.9H26c-0.2-0.5-0.7-0.9-1.3-0.9c-0.7,0-1.1,0.3-1.4,0.9h-0.1v-0.8h-0.9v5H23.3z M34.2,26.4l-0.9-0.2
					c-0.2,0.5-0.6,0.7-1.1,0.7c-0.8,0-1.4-0.5-1.4-1.5h3.5v-0.3c0-1.8-1.1-2.5-2.2-2.5c-1.4,0-2.3,1.1-2.3,2.6
					c0,1.5,0.9,2.6,2.4,2.6C33.2,27.8,34,27.2,34.2,26.4z M32,23.4c0.7,0,1.2,0.6,1.2,1.3h-2.6C30.7,24.1,31.3,23.4,32,23.4z
					 M35.8,27.7v-3c0-0.7,0.5-1.1,1.2-1.1c0.2,0,0.4,0,0.5,0.1v-0.9c-0.1,0-0.3,0-0.4,0c-0.6,0-1.1,0.3-1.3,0.9h-0.1v-0.8h-0.9v5
					H35.8z M41.9,26.1h-0.9c-0.1,0.5-0.5,0.9-1.1,0.9c-0.8,0-1.3-0.7-1.3-1.8c0-1.1,0.5-1.7,1.3-1.7c0.6,0,1,0.4,1.1,0.9h0.9
					c-0.1-1-0.9-1.7-2-1.7c-1.4,0-2.3,1.1-2.3,2.6c0,1.5,0.9,2.6,2.3,2.6C41,27.8,41.8,27.1,41.9,26.1z M46.7,26.4l-0.9-0.2
					c-0.2,0.5-0.6,0.7-1.1,0.7c-0.8,0-1.4-0.5-1.4-1.5h3.5v-0.3c0-1.8-1.1-2.5-2.2-2.5c-1.4,0-2.3,1.1-2.3,2.6
					c0,1.5,0.9,2.6,2.4,2.6C45.7,27.8,46.5,27.2,46.7,26.4z M44.6,23.4c0.7,0,1.2,0.6,1.2,1.3h-2.6C43.3,24.1,43.8,23.4,44.6,23.4z
					 M51.3,26.9c-0.6,0-1-0.4-1-1.1v-3h-1v3.2c0,1.2,0.7,1.9,1.6,1.9c0.7,0,1.3-0.4,1.5-0.9h0.1v0.9h1v-5h-1v2.9
					C52.5,26.5,51.9,26.9,51.3,26.9z M55.3,27.7v-5h-1v5H55.3z M55.4,21.4c0-0.3-0.3-0.6-0.6-0.6c-0.3,0-0.6,0.3-0.6,0.6
					s0.3,0.6,0.6,0.6C55.2,21.9,55.4,21.7,55.4,21.4z M59.1,27.7v-1.8l0.5-0.5l1.7,2.2h1.2l-2.1-2.8l2-2.1h-1.2l-2,2.1h-0.1V21h-1
					v6.6H59.1z M63.7,27.7v-5h-1v5H63.7z M63.9,21.4c0-0.3-0.3-0.6-0.6-0.6c-0.3,0-0.6,0.3-0.6,0.6s0.3,0.6,0.6,0.6
					C63.6,21.9,63.9,21.7,63.9,21.4z M65.9,22.7v-1.2h-1v1.2h-0.7v0.8h0.7v2.9c0,0.9,0.7,1.3,1.4,1.3c0.3,0,0.5-0.1,0.6-0.1
					l-0.2-0.8c-0.1,0-0.2,0-0.3,0c-0.3,0-0.6-0.1-0.6-0.7v-2.7h1v-0.8H65.9z"/>
			</g>
		</g>
	</g>
</g>
<g id="Layer_2">
	<rect x="3" y="11.2" class="st7" width="115.5" height="33.2"/>
	<text transform="matrix(1 0 0 1 3.0196 26.1852)" class="st8 st9">Andy Store</text>
</g>
</svg>
